<svg width="30" height="31" viewBox="0 0 30 31" fill="none" xmlns="http://www.w3.org/2000/svg">
<path d="M12 17C12 17.8284 11.3284 18.5 10.5 18.5C9.67158 18.5 9 17.8284 9 17C9 16.1716 9.67158 15.5 10.5 15.5C11.3284 15.5 12 16.1716 12 17Z" fill="white"/>
<path d="M12 21.5C12 22.3284 11.3284 23 10.5 23C9.67158 23 9 22.3284 9 21.5C9 20.6716 9.67158 20 10.5 20C11.3284 20 12 20.6716 12 21.5Z" fill="white"/>
<path d="M19.5 18.5C20.3284 18.5 21 17.8284 21 17C21 16.1716 20.3284 15.5 19.5 15.5C18.6716 15.5 18 16.1716 18 17C18 17.8284 18.6716 18.5 19.5 18.5Z" fill="white"/>
<path d="M21 21.5C21 22.3284 20.3284 23 19.5 23C18.6716 23 18 22.3284 18 21.5C18 20.6716 18.6716 20 19.5 20C20.3284 20 21 20.6716 21 21.5Z" fill="white"/>
<path d="M15 18.5C15.8284 18.5 16.5 17.8284 16.5 17C16.5 16.1716 15.8284 15.5 15 15.5C14.1716 15.5 13.5 16.1716 13.5 17C13.5 17.8284 14.1716 18.5 15 18.5Z" fill="white"/>
<path d="M16.5 21.5C16.5 22.3284 15.8284 23 15 23C14.1716 23 13.5 22.3284 13.5 21.5C13.5 20.6716 14.1716 20 15 20C15.8284 20 16.5 20.6716 16.5 21.5Z" fill="white"/>
<path d="M11.25 6.5C10.0074 6.5 9 7.50735 9 8.75V10.25C9 11.4926 10.0074 12.5 11.25 12.5H18.75C19.9926 12.5 21 11.4926 21 10.25V8.75C21 7.50735 19.9926 6.5 18.75 6.5H11.25ZM10.5 8.75C10.5 8.33579 10.8358 8 11.25 8H18.75C19.1642 8 19.5 8.33579 19.5 8.75V10.25C19.5 10.6642 19.1642 11 18.75 11H11.25C10.8358 11 10.5 10.6642 10.5 10.25V8.75Z" fill="white"/>
<path d="M24 23.75C24 25.8211 22.3211 27.5 20.25 27.5H9.75C7.67894 27.5 6 25.8211 6 23.75V7.25C6 5.17894 7.67894 3.5 9.75 3.5H20.25C22.3211 3.5 24 5.17894 24 7.25V23.75ZM22.5 7.25C22.5 6.00735 21.4926 5 20.25 5H9.75C8.50735 5 7.5 6.00735 7.5 7.25V23.75C7.5 24.9926 8.50735 26 9.75 26H20.25C21.4926 26 22.5 24.9926 22.5 23.75V7.25Z" fill="white"/>
</svg>
