<svg width="21" height="21" viewBox="0 0 21 21" fill="none" xmlns="http://www.w3.org/2000/svg">
<path fill-rule="evenodd" clip-rule="evenodd" d="M19.8333 20.5C20.2015 20.5 20.5 20.2015 20.5 19.8333L20.5 1.16667C20.5 0.798533 20.2015 0.499999 19.8333 0.499999L14.5 0.5C14.1318 0.5 13.8333 0.798533 13.8333 1.16667L13.8333 13.8333L1.16667 13.8333C0.798532 13.8333 0.499999 14.1318 0.499999 14.5L0.499999 19.8333C0.499999 20.2015 0.798533 20.5 1.16667 20.5L19.8333 20.5ZM19.1667 15.0666L19.1667 19.1667L15.0666 19.1667L15.0666 15.0666L19.1667 15.0666ZM19.1667 13.9333L19.1667 1.83333L15.1667 1.83333L15.1667 3.26667L16.8333 3.26667C17.1463 3.26667 17.4 3.52027 17.4 3.83333C17.4 4.14627 17.1463 4.4 16.8333 4.4L15.1667 4.4L15.1667 5.93333L17.5 5.93333C17.8129 5.93333 18.0666 6.18707 18.0666 6.5C18.0666 6.81293 17.8129 7.06667 17.5 7.06667L15.1667 7.06667L15.1667 8.59995L16.8333 8.59997C17.1463 8.59997 17.4 8.85368 17.4 9.16664C17.4 9.47961 17.1463 9.73331 16.8333 9.73331L15.1667 9.73328L15.1667 11.2666L16.8333 11.2667C17.1463 11.2667 17.4 11.5204 17.4 11.8333C17.4 12.1463 17.1463 12.4 16.8333 12.4L15.1667 12.4L15.1667 13.9332L19.1667 13.9333ZM13.9333 15.1667L12.4 15.1667L12.4 16.8333C12.4 17.1462 12.1463 17.3999 11.8333 17.3999C11.5204 17.3999 11.2667 17.1462 11.2667 16.8333L11.2667 15.1667L9.73331 15.1667L9.73331 16.8333C9.73331 17.1462 9.4796 17.3999 9.16664 17.3999C8.85368 17.3999 8.59997 17.1462 8.59997 16.8333L8.59997 15.1667L7.06653 15.1667L7.06653 17.4999C7.06653 17.8129 6.81293 18.0666 6.49987 18.0666C6.18693 18.0666 5.9332 17.8129 5.9332 17.4999L5.9332 15.1667L4.39987 15.1667L4.39987 16.8333C4.39987 17.1462 4.14613 17.3999 3.8332 17.3999C3.52027 17.3999 3.26653 17.1462 3.26653 16.8333L3.26653 15.1667L1.83333 15.1667L1.83333 19.1667L13.9333 19.1667L13.9333 15.1667Z" fill="#215EED"/>
</svg>
