<svg width="23" height="23" viewBox="0 0 23 23" fill="none" xmlns="http://www.w3.org/2000/svg">
<path d="M16.1961 13.4921C15.8686 13.4921 15.6605 13.6321 15.543 13.7495L14.2307 15.0627C14.2204 15.073 14.1642 15.1007 14.0346 15.1007C13.3116 15.1007 11.7764 14.2964 10.2405 12.7595C8.17578 10.6957 7.72051 8.9861 7.93735 8.76927L9.25045 7.45703C10.1161 6.59142 8.58439 4.80146 7.59438 3.81145C7.14517 3.36223 5.60314 1.89795 4.60276 1.89795C4.27535 1.89795 4.06715 2.0379 3.94967 2.15539L1.32346 4.78159C0.535603 5.56945 0.816365 7.09938 2.1597 9.3282C3.31903 11.2529 5.15219 13.5077 7.32226 15.6777C10.5264 18.8819 14.7724 22.1154 17.0349 22.1154H17.0358C17.6508 22.1154 18.0189 21.877 18.2184 21.6765L20.8446 19.0503C21.7102 18.1856 20.1786 16.3956 19.1885 15.4056C18.7393 14.9564 17.1973 13.4921 16.1961 13.4921ZM17.2802 20.7384C17.2612 20.7574 17.1887 20.7885 17.0349 20.7885C15.714 20.7885 12.1894 18.6685 8.26044 14.7396C6.16466 12.6438 4.40148 10.4789 3.29571 8.64401C2.06036 6.59229 2.16575 5.81566 2.26164 5.71976L4.71766 3.26375C5.04507 3.39765 5.7785 3.87192 6.65621 4.74962C7.53478 5.62819 8.00818 6.36163 8.14209 6.68818L6.99917 7.83109C5.77505 9.05694 7.33522 11.7315 9.30228 13.6977C10.9851 15.3814 12.7984 16.4276 14.0346 16.4276C14.6186 16.4276 14.9737 16.1961 15.1689 16.0008L16.3118 14.8579C16.6384 14.9918 17.3718 15.4652 18.2504 16.3438C19.1281 17.2224 19.6023 17.9549 19.7362 18.2823L17.2802 20.7384Z" fill="#1D1D1B"/>
</svg>
