<svg width="20" height="20" viewBox="0 0 20 20" fill="none" xmlns="http://www.w3.org/2000/svg">
<path d="M9 6.99299H11V4.995H9V6.99299ZM10 17.982C5.59 17.982 2 14.3956 2 9.98999C2 5.5844 5.59 1.998 10 1.998C14.41 1.998 18 5.5844 18 9.98999C18 14.3956 14.41 17.982 10 17.982ZM10 0C8.68678 0 7.38642 0.258399 6.17317 0.760443C4.95991 1.26249 3.85752 1.99834 2.92893 2.926C1.05357 4.79949 0 7.34048 0 9.98999C0 12.6395 1.05357 15.1805 2.92893 17.054C3.85752 17.9816 4.95991 18.7175 6.17317 19.2195C7.38642 19.7216 8.68678 19.98 10 19.98C12.6522 19.98 15.1957 18.9275 17.0711 17.054C18.9464 15.1805 20 12.6395 20 9.98999C20 8.67809 19.7413 7.37903 19.2388 6.16699C18.7362 4.95494 17.9997 3.85366 17.0711 2.926C16.1425 1.99834 15.0401 1.26249 13.8268 0.760443C12.6136 0.258399 11.3132 0 10 0ZM9 14.985H11V8.99099H9V14.985Z" fill="#636363"/>
</svg>
