<svg width="43" height="49" viewBox="0 0 43 49" fill="none" xmlns="http://www.w3.org/2000/svg">
<path d="M40.7578 1.79814C40.1962 1.5525 39.5738 1.47972 38.9703 1.58911C38.3669 1.69851 37.81 1.9851 37.371 2.41215L35.4467 4.2158C35.1864 4.44512 34.8511 4.57168 34.5037 4.57168C34.1564 4.57168 33.8211 4.44512 33.5608 4.2158L29.2888 0.570129C28.665 0.13047 27.901 -0.0655174 27.1419 0.0193728C26.3828 0.104263 25.6813 0.464121 25.1707 1.03063L22.5151 3.94717C22.3844 4.09286 22.2242 4.20924 22.0451 4.28862C21.866 4.368 21.672 4.40858 21.4759 4.40768C21.2892 4.40818 21.1043 4.37104 20.9324 4.2985C20.7604 4.22596 20.605 4.11951 20.4753 3.98555L17.4733 1.06901C17.1874 0.764604 16.8416 0.522286 16.4575 0.357209C16.0734 0.192132 15.6593 0.107846 15.2411 0.109623C14.4219 0.105018 13.6339 0.422084 13.0473 0.992259L9.77596 4.29255C9.51966 4.52992 9.18282 4.66184 8.83303 4.66184C8.48324 4.66184 8.14639 4.52992 7.8901 4.29255L5.15754 2.10515C4.68723 1.74021 4.12186 1.51734 3.52843 1.46293C2.93499 1.40852 2.33835 1.52485 1.80918 1.79814C1.2632 2.04459 0.801229 2.44456 0.479913 2.94899C0.158598 3.45343 -0.00808747 4.04041 0.000301779 4.63793V42.4378C0.0405287 44.1922 0.767846 45.8612 2.02661 47.0876C3.28537 48.314 4.97557 49.0005 6.7355 49H35.9085C37.6948 49 39.4079 48.2925 40.671 47.033C41.9341 45.7736 42.6437 44.0654 42.6437 42.2843V4.75306C42.669 4.12755 42.5019 3.50928 42.1648 2.98114C41.8278 2.45299 41.3368 2.04022 40.7578 1.79814ZM39.7572 42.1692C39.7572 43.1869 39.3517 44.163 38.6299 44.8827C37.9082 45.6024 36.9292 46.0067 35.9085 46.0067H6.7355C5.71476 46.0067 4.73584 45.6024 4.01407 44.8827C3.2923 44.163 2.88681 43.1869 2.88681 42.1692V4.48443H3.27168L5.92727 6.51833C6.73898 7.21269 7.78235 7.57821 8.85124 7.54268C9.92012 7.50716 10.9368 7.07316 11.7003 6.32645L15.3565 3.06454L18.1661 5.98107C18.9911 6.8102 20.1122 7.27939 21.2835 7.28584C22.4642 7.25084 23.5837 6.75469 24.4009 5.90432L27.4029 2.94941L31.675 6.78696C32.4668 7.49889 33.4952 7.89292 34.5615 7.89292C35.6277 7.89292 36.6561 7.49889 37.448 6.78696L39.6032 4.90656C39.6204 4.94254 39.6292 4.98186 39.6292 5.02169C39.6292 5.06151 39.6204 5.10083 39.6032 5.13681L39.7572 42.1692Z" fill="#F4C65F"/>
<path d="M28.0957 19.4507L19.0898 30.6947L16.2802 28.3538C16.139 28.2003 15.9664 28.0787 15.7741 27.9973C15.5817 27.9159 15.3741 27.8765 15.1652 27.8818C14.9564 27.8871 14.751 27.937 14.5631 28.0281C14.3752 28.1191 14.209 28.2493 14.0758 28.4098C13.9426 28.5703 13.8454 28.7575 13.7908 28.9586C13.7362 29.1597 13.7255 29.3701 13.7593 29.5757C13.7931 29.7813 13.8708 29.9773 13.9869 30.1505C14.1031 30.3236 14.2552 30.47 14.4329 30.5796L17.3579 32.9973C17.8229 33.311 18.3746 33.472 18.9358 33.4578C19.343 33.4608 19.746 33.3767 20.1178 33.2112C20.4896 33.0457 20.8215 32.8026 21.0911 32.4984L30.3279 21.2927C30.5678 20.9976 30.6803 20.6195 30.6406 20.2417C30.6009 19.8638 30.4123 19.5172 30.1163 19.278C29.8202 19.0388 29.4411 18.9267 29.0621 18.9663C28.6832 19.0059 28.3356 19.1939 28.0957 19.4891V19.4507Z" fill="#F4C65F"/>
</svg>
