<svg width="65" height="65" viewBox="0 0 65 65" fill="none" xmlns="http://www.w3.org/2000/svg">
<path fill-rule="evenodd" clip-rule="evenodd" d="M63.6458 54.1667C63.6458 57.9069 60.6152 60.9375 56.875 60.9375H8.12499C4.38478 60.9375 1.35416 57.9069 1.35416 54.1667V14.8958C1.35416 11.9045 3.77947 9.47917 6.77082 9.47917H34.0857L45.0531 5.50604C45.7478 5.25281 46.517 5.61167 46.7702 6.30365L47.9253 9.47917H52.8125C55.8038 9.47917 58.2292 11.9045 58.2292 14.8958V17.6042C61.2205 17.6042 63.6458 20.0295 63.6458 23.0208V54.1667ZM6.77082 12.1875C5.27582 12.1875 4.06249 13.4008 4.06249 14.8958C4.06249 16.3908 5.27582 17.6042 6.77082 17.6042H11.4359H11.6919C11.7095 17.5974 11.7203 17.5825 11.7379 17.5757L26.6094 12.1875H6.77082ZM46.1473 12.4326L44.7092 8.47302H44.7078L41.9304 9.47917H41.9345L34.4676 12.1875H34.4541L19.5054 17.6042H48.0269L46.1473 12.4326ZM55.5208 14.8958C55.5208 13.4008 54.3075 12.1875 52.8125 12.1875H48.9084L50.8774 17.6042H55.5208V14.8958ZM58.2292 20.3125H6.77082C5.77957 20.3125 4.86145 20.0268 4.06249 19.5609V54.1667C4.06249 56.4105 5.88249 58.2292 8.12499 58.2292H56.875C59.1188 58.2292 60.9375 56.4105 60.9375 54.1667V44.6875H55.5208C52.5295 44.6875 50.1042 42.2622 50.1042 39.2708C50.1042 36.2795 52.5295 33.8542 55.5208 33.8542H60.9375V23.0208C60.9375 21.5258 59.7242 20.3125 58.2292 20.3125ZM60.9375 41.9792V36.5625H55.5208C54.0258 36.5625 52.8125 37.7758 52.8125 39.2708C52.8125 40.7658 54.0258 41.9792 55.5208 41.9792H60.9375ZM55.5208 37.9167H58.2292V40.625H55.5208V37.9167Z" fill="#F4C65F"/>
</svg>
