<svg width="168" height="168" viewBox="0 0 168 168" fill="none" xmlns="http://www.w3.org/2000/svg">
<path d="M112.377 47.9341H52.4484C52.4484 47.9341 52.4484 47.9341 52.3988 47.9341H43.3203C37.0199 47.9341 31.9102 53.0438 31.9102 59.3442V100.768C31.9102 107.068 37.0199 112.178 43.3203 112.178H52.3988H112.377H121.455C127.755 112.178 132.865 107.068 132.865 100.768V59.3442C132.865 53.0438 127.755 47.9341 121.455 47.9341H112.377ZM125.424 70.7048V89.3579C116.841 89.7548 109.846 96.3032 108.755 104.687H56.0203C54.9289 96.3032 47.934 89.7548 39.3516 89.3579V70.7048C47.934 70.3079 54.9289 63.7595 56.0203 55.3755H108.755C109.846 63.7595 116.841 70.3079 125.424 70.7048ZM43.3203 55.3755H48.4797C47.4875 59.6419 43.8164 62.8665 39.3516 63.2634V59.3442C39.3516 57.1614 41.1375 55.3755 43.3203 55.3755ZM39.3516 100.718V96.7993C43.8164 97.1466 47.4875 100.421 48.4797 104.687H43.3203C41.1375 104.687 39.3516 102.901 39.3516 100.718ZM121.505 104.687H116.345C117.338 100.421 121.009 97.1962 125.473 96.7993V100.718C125.424 102.901 123.688 104.687 121.505 104.687ZM125.424 59.2946V63.2138C120.959 62.8665 117.288 59.5923 116.296 55.3259H121.455C123.688 55.3755 125.424 57.1614 125.424 59.2946Z" fill="#F4C65F"/>
<path d="M82.4125 96.2536C91.3422 96.2536 98.6348 88.961 98.6348 80.0313C98.6348 71.1017 91.3422 63.8091 82.4125 63.8091C73.4828 63.8091 66.1902 71.1017 66.1902 80.0313C66.1902 88.961 73.4332 96.2536 82.4125 96.2536ZM82.4125 71.2505C87.2742 71.2505 91.1934 75.1696 91.1934 80.0313C91.1934 84.8931 87.2742 88.8122 82.4125 88.8122C77.5508 88.8122 73.6317 84.8931 73.6317 80.0313C73.6317 75.1696 77.5508 71.2505 82.4125 71.2505Z" fill="#F4C65F"/>
<path d="M84.0496 167.443C106.324 167.443 127.259 158.762 143.035 142.986C157.67 128.351 166.302 108.904 167.344 88.217C167.443 86.183 165.855 84.3971 163.821 84.2979C161.787 84.1987 160.002 85.7862 159.902 87.8202C158.96 106.622 151.072 124.333 137.727 137.678C123.39 152.015 104.29 159.952 84 159.952C63.7098 159.952 44.6101 152.064 30.273 137.678C0.656231 108.061 0.656231 59.8405 30.273 30.2237C55.5242 4.97248 94.8148 0.755682 124.68 19.7561L116.296 30.0252L140.356 27.5944L137.925 3.53381L129.442 13.9518C96.5512 -7.47947 52.9445 -2.96502 25.0144 24.9651C-7.52931 57.5088 -7.52931 110.392 25.0144 142.936C40.8398 158.762 61.775 167.443 84.0496 167.443Z" fill="#F4C65F"/>
</svg>
