<svg width="89" height="65" viewBox="0 0 89 65" fill="none" xmlns="http://www.w3.org/2000/svg">
<path d="M30.4282 0.000190557C27.3908 0.000190557 24.4835 0.540283 21.7701 1.4951C22.9109 1.35445 24.0662 1.25777 25.2438 1.25777C40.8631 1.25774 53.6298 13.998 53.6562 29.6178C53.6562 29.6198 53.6562 29.6218 53.6562 29.6238V45.0814C54.6816 43.2803 55.7562 41.3881 56.6029 39.9217C56.7392 39.6842 56.8114 39.4156 56.8125 39.1418V26.338C56.788 11.8024 44.9638 -1.78937e-05 30.4282 0V0.000190557ZM25.2438 4.41401C11.3173 4.41401 0 15.7437 0 29.6702C0 43.5967 11.3173 54.914 25.2438 54.914C25.2479 54.914 25.2522 54.914 25.2563 54.914C31.5614 54.8943 39.4498 54.914 45.3866 54.914C48.0941 54.914 50.5001 52.9014 50.5001 50.2105V29.6239C50.4769 15.714 39.1539 4.41399 25.244 4.41401H25.2438ZM24.4671 18.7867C30.9852 18.7867 36.303 24.1045 36.303 30.6226C36.303 37.1407 30.9852 42.4585 24.4671 42.4585C17.949 42.4585 12.6312 37.1407 12.6312 30.6226C12.6312 24.1045 17.949 18.7867 24.4671 18.7867ZM24.4671 21.9429C19.6548 21.9429 15.7874 25.8102 15.7874 30.6226C15.7874 35.4349 19.6548 39.3023 24.4671 39.3023C29.2794 39.3023 33.1437 35.4349 33.1437 30.6226C33.1437 25.8102 29.2794 21.9429 24.4671 21.9429ZM59.9595 39.3054C59.9321 40.0739 59.7232 40.8262 59.34 41.4938C59.3389 41.4958 59.3379 41.4979 59.3368 41.4997C57.2505 45.0988 55.5254 48.2186 53.4497 51.9579C54.1484 51.9704 56.282 51.956 57.4628 51.9611L62.49 43.2505C62.6149 43.0259 62.7928 42.8353 63.0082 42.6951C63.2236 42.5549 63.47 42.4694 63.726 42.4461C63.7772 42.4416 63.8287 42.4396 63.8801 42.4401C64.1577 42.442 64.4299 42.5171 64.6692 42.6579C64.9085 42.7986 65.1064 43 65.243 43.2416C65.3797 43.4833 65.4501 43.7567 65.4473 44.0343C65.4445 44.3119 65.3685 44.5838 65.227 44.8227L61.0968 51.9674C62.7321 51.967 63.7358 51.9758 65.5568 51.9706L67.8593 47.9821C67.9843 47.7575 68.1622 47.5668 68.3776 47.4266C68.593 47.2864 68.8394 47.2009 69.0953 47.1776C69.1537 47.1724 69.2123 47.1704 69.271 47.1717C69.5486 47.1761 69.8201 47.2536 70.0582 47.3965C70.2962 47.5394 70.4924 47.7426 70.6268 47.9855C70.7612 48.2285 70.8292 48.5025 70.8239 48.7801C70.8185 49.0577 70.74 49.329 70.5963 49.5666L69.2062 51.9677C71.0637 51.9606 72.0806 51.9558 73.6786 51.9492L78.6935 43.2511C78.8184 43.0265 78.9963 42.8358 79.2117 42.6956C79.4271 42.5554 79.6735 42.4699 79.9295 42.4466C79.9807 42.4421 80.0321 42.4401 80.0836 42.4406C80.3612 42.4426 80.6334 42.5177 80.8727 42.6584C81.112 42.7991 81.3099 43.0005 81.4465 43.2422C81.5831 43.4838 81.6536 43.7572 81.6508 44.0348C81.648 44.3124 81.572 44.5844 81.4305 44.8232L77.3188 51.937C78.1667 51.934 79.98 51.9251 80.4843 51.9245C81.0469 51.9228 81.5659 51.655 81.8466 51.2217L88.1622 41.4078C88.7666 40.4743 88.0114 39.3095 86.7999 39.3057L59.9595 39.3054ZM88.3719 46.9124L84.5006 52.929C84.4986 52.9322 84.4966 52.9354 84.4946 52.9386C83.5712 54.3638 82.0518 55.0759 80.4938 55.0807C80.4918 55.0807 80.4899 55.0807 80.4879 55.0807C80.2369 55.0809 79.2443 55.0859 78.9005 55.0867V62.8294C78.8808 64.5124 81.157 65.0533 81.8965 63.5414L88.209 50.9133C88.3166 50.6956 88.3725 50.4563 88.3724 50.2137L88.3719 46.9124Z" fill="#F4C65F"/>
</svg>
