<svg width="24" height="25" viewBox="0 0 24 25" fill="none" xmlns="http://www.w3.org/2000/svg">
<path d="M8.20195 12.1221C7.52551 12.1221 6.86427 11.9215 6.30183 11.5457C5.7394 11.1699 5.30103 10.6357 5.04217 10.0108C4.78331 9.38583 4.71558 8.69815 4.84755 8.03472C4.97951 7.37128 5.30525 6.76187 5.78356 6.28356C6.26187 5.80525 6.87128 5.47951 7.53472 5.34755C8.19815 5.21558 8.88583 5.28331 9.51077 5.54217C10.1357 5.80103 10.6699 6.2394 11.0457 6.80183C11.4215 7.36427 11.6221 8.02551 11.6221 8.70195C11.6211 9.60873 11.2605 10.4781 10.6193 11.1193C9.97811 11.7605 9.10873 12.1211 8.20195 12.1221ZM8.20195 7.03964C7.87318 7.03964 7.55179 7.13714 7.27842 7.31979C7.00506 7.50245 6.792 7.76207 6.66618 8.06581C6.54036 8.36956 6.50744 8.70379 6.57158 9.02625C6.63572 9.3487 6.79404 9.6449 7.02652 9.87738C7.259 10.1099 7.55519 10.2682 7.87765 10.3323C8.2001 10.3965 8.53434 10.3635 8.83808 10.2377C9.14183 10.1119 9.40145 9.89884 9.5841 9.62548C9.76676 9.35211 9.86425 9.03072 9.86425 8.70195C9.86379 8.26122 9.6885 7.83868 9.37686 7.52704C9.06522 7.21539 8.64268 7.04011 8.20195 7.03964Z" fill="#215EED"/>
<path d="M15.798 19.7182C15.1216 19.7182 14.4604 19.5176 13.8979 19.1418C13.3355 18.766 12.8971 18.2318 12.6383 17.6069C12.3794 16.9819 12.3117 16.2943 12.4436 15.6308C12.5756 14.9674 12.9013 14.358 13.3797 13.8797C13.858 13.4013 14.4674 13.0756 15.1308 12.9436C15.7943 12.8117 16.4819 12.8794 17.1069 13.1383C17.7318 13.3971 18.266 13.8355 18.6418 14.3979C19.0176 14.9604 19.2182 15.6216 19.2182 16.298C19.2169 17.2047 18.8562 18.0739 18.2151 18.7151C17.5739 19.3562 16.7047 19.7169 15.798 19.7182ZM15.798 14.6357C15.4693 14.6357 15.1479 14.7332 14.8745 14.9159C14.6012 15.0985 14.3881 15.3582 14.2623 15.6619C14.1365 15.9657 14.1035 16.2999 14.1677 16.6223C14.2318 16.9448 14.3901 17.241 14.6226 17.4735C14.8551 17.706 15.1513 17.8643 15.4737 17.9284C15.7962 17.9926 16.1304 17.9596 16.4342 17.8338C16.7379 17.708 16.9975 17.4949 17.1802 17.2216C17.3629 16.9482 17.4604 16.6268 17.4604 16.298C17.4599 15.8573 17.2846 15.4348 16.973 15.1231C16.6613 14.8115 16.2388 14.6362 15.798 14.6357Z" fill="#215EED"/>
<path d="M8.54766 18.49C8.38824 18.4899 8.23185 18.4464 8.09526 18.3642C7.95866 18.282 7.847 18.1641 7.77223 18.0233C7.69747 17.8825 7.66241 17.724 7.67081 17.5648C7.67921 17.4056 7.73076 17.2517 7.81993 17.1195L14.7229 6.89668C14.8533 6.70344 15.0552 6.56994 15.2841 6.52555C15.513 6.48115 15.7501 6.5295 15.9434 6.65996C16.1366 6.79042 16.2701 6.9923 16.3145 7.22119C16.3589 7.45008 16.3105 7.68723 16.1801 7.88047L9.27657 18.1033C9.196 18.2225 9.08741 18.3201 8.96032 18.3875C8.83323 18.455 8.69153 18.4902 8.54766 18.49Z" fill="#215EED"/>
<path d="M12 24.2773C5.50605 24.2773 0.222656 18.9939 0.222656 12.5C0.222656 6.00605 5.50605 0.722656 12 0.722656C18.4939 0.722656 23.7773 6.00605 23.7773 12.5C23.7773 18.9939 18.4939 24.2773 12 24.2773ZM12 2.48047C6.4752 2.48047 1.98047 6.9752 1.98047 12.5C1.98047 18.0248 6.4752 22.5195 12 22.5195C17.5248 22.5195 22.0195 18.0248 22.0195 12.5C22.0195 6.9752 17.5248 2.48047 12 2.48047Z" fill="#215EED"/>
</svg>
