<svg width="22" height="22" viewBox="0 0 22 22" fill="none" xmlns="http://www.w3.org/2000/svg">
<path d="M16.1961 12.4921C15.8686 12.4921 15.6605 12.6321 15.543 12.7495L14.2307 14.0627C14.2204 14.073 14.1642 14.1007 14.0346 14.1007C13.3116 14.1007 11.7764 13.2964 10.2405 11.7595C8.17578 9.69573 7.72051 7.9861 7.93735 7.76927L9.25045 6.45703C10.1161 5.59142 8.58439 3.80146 7.59438 2.81145C7.14517 2.36223 5.60314 0.897949 4.60276 0.897949C4.27535 0.897949 4.06715 1.0379 3.94967 1.15539L1.32346 3.78159C0.535603 4.56945 0.816365 6.09938 2.1597 8.3282C3.31903 10.2529 5.15219 12.5077 7.32226 14.6777C10.5264 17.8819 14.7724 21.1154 17.0349 21.1154H17.0358C17.6508 21.1154 18.0189 20.877 18.2184 20.6765L20.8446 18.0503C21.7102 17.1856 20.1786 15.3956 19.1885 14.4056C18.7393 13.9564 17.1973 12.4921 16.1961 12.4921ZM17.2802 19.7384C17.2612 19.7574 17.1887 19.7885 17.0349 19.7885C15.714 19.7885 12.1894 17.6685 8.26044 13.7396C6.16466 11.6438 4.40148 9.47889 3.29571 7.64401C2.06036 5.59229 2.16575 4.81566 2.26164 4.71976L4.71766 2.26375C5.04507 2.39765 5.7785 2.87192 6.65621 3.74962C7.53478 4.62819 8.00818 5.36163 8.14209 5.68818L6.99917 6.83109C5.77505 8.05694 7.33522 10.7315 9.30228 12.6977C10.9851 14.3814 12.7984 15.4276 14.0346 15.4276C14.6186 15.4276 14.9737 15.1961 15.1689 15.0008L16.3118 13.8579C16.6384 13.9918 17.3718 14.4652 18.2504 15.3438C19.1281 16.2224 19.6023 16.9549 19.7362 17.2823L17.2802 19.7384Z" fill="#215EED"/>
</svg>
