<svg width="35" height="35" viewBox="0 0 35 35" fill="none" xmlns="http://www.w3.org/2000/svg">
<path fill-rule="evenodd" clip-rule="evenodd" d="M0.0935364 17.4532C0.0935364 7.81408 7.90762 0 17.5468 0C27.1859 0 35 7.81408 35 17.4532C35 27.0924 27.1859 34.9065 17.5468 34.9065C7.90762 34.9065 0.0935364 27.0924 0.0935364 17.4532ZM17.5358 17.7337C20.1094 17.7337 22.2015 15.7139 22.2015 13.231C22.2015 10.7472 20.1094 8.72687 17.5358 8.72687C14.9626 8.72687 12.87 10.7472 12.87 13.231C12.87 15.7139 14.9626 17.7337 17.5358 17.7337ZM22.1441 20.3263C21.3004 20.8377 20.3845 21.2005 19.4348 21.4093L22.043 23.9273C22.5774 24.442 22.5774 25.278 22.043 25.7932C21.5093 26.3084 20.6441 26.3084 20.1109 25.7932L17.5464 23.3188L14.9842 25.7932C14.7171 26.0506 14.367 26.1794 14.0169 26.1794C13.6674 26.1794 13.3178 26.0506 13.0507 25.7932C12.5169 25.278 12.5169 24.4426 13.0501 23.9273L15.6587 21.4093C14.709 21.2005 13.793 20.8372 12.9493 20.3263C12.3109 19.9377 12.1191 19.1236 12.5214 18.5067C12.9225 17.8891 13.7662 17.7031 14.4058 18.0917C16.3159 19.2516 18.7765 19.2518 20.6877 18.0917C21.3272 17.7031 22.1706 17.8891 22.5726 18.5067C22.9749 19.123 22.7826 19.9377 22.1441 20.3263Z" fill="#535967"/>
<path fill-rule="evenodd" clip-rule="evenodd" d="M17.5333 11.3662C18.5986 11.3662 19.4652 12.2024 19.4652 13.2307C19.4652 14.2583 18.5986 15.095 17.5333 15.095C16.4689 15.095 15.6015 14.2583 15.6015 13.2307C15.6015 12.2024 16.4689 11.3662 17.5333 11.3662Z" fill="#535967"/>
</svg>
