<svg width="35" height="35" viewBox="0 0 35 35" fill="none" xmlns="http://www.w3.org/2000/svg">
<path fill-rule="evenodd" clip-rule="evenodd" d="M17.4532 0C7.81408 0 0 7.81408 0 17.4532C0 27.0924 7.81408 34.9065 17.4532 34.9065C27.0924 34.9065 34.9065 27.0924 34.9065 17.4532C34.9065 7.81408 27.0924 0 17.4532 0ZM18.8743 22.9625C18.7022 23.144 18.3662 23.1806 18.3662 23.1806H17.2535C17.2535 23.1806 14.7987 23.3254 12.6362 21.116C10.2778 18.7054 8.19541 13.9227 8.19541 13.9227C8.19541 13.9227 8.07522 13.609 8.20543 13.458C8.35203 13.2873 8.75176 13.2765 8.75176 13.2765L11.4115 13.2596C11.4115 13.2596 11.6619 13.2998 11.8412 13.4294C11.9897 13.5366 12.0725 13.7359 12.0725 13.7359C12.0725 13.7359 12.5023 14.8031 13.0714 15.7684C14.1832 17.6534 14.7004 18.0655 15.0773 17.8635C15.6273 17.5694 15.4625 15.1991 15.4625 15.1991C15.4625 15.1991 15.4725 14.3392 15.1857 13.9558C14.9635 13.6591 14.5447 13.5724 14.3598 13.5482C14.2096 13.5286 14.4554 13.1872 14.7741 13.0343C15.2531 12.8046 16.0981 12.7912 17.0969 12.801C17.8754 12.8091 18.0994 12.8565 18.4036 12.9288C19.1094 13.096 19.0874 13.6318 19.0398 14.7882C19.0256 15.1341 19.0091 15.5354 19.0091 15.999C19.0091 16.1032 19.006 16.2142 19.0028 16.3285C18.9863 16.9209 18.9674 17.5993 19.3651 17.8518C19.5691 17.9806 20.0671 17.8706 21.3137 15.7934C21.9046 14.8085 22.3471 13.651 22.3471 13.651C22.3471 13.651 22.4446 13.4446 22.5948 13.3561C22.7487 13.2658 22.9563 13.2935 22.9563 13.2935L25.7553 13.2765C25.7553 13.2765 26.5967 13.1773 26.7323 13.5509C26.8753 13.9415 26.4182 14.855 25.2746 16.3512C24.1897 17.7708 23.6618 18.2935 23.7102 18.7558C23.7456 19.0936 24.0888 19.3991 24.7473 19.9987C26.1221 21.2516 26.4906 21.9108 26.5791 22.0691C26.5864 22.0823 26.5919 22.0919 26.5958 22.0982C27.2122 23.102 25.9119 23.1806 25.9119 23.1806L23.4252 23.2146C23.4252 23.2146 22.8917 23.3183 22.1887 22.8446C21.8205 22.5966 21.4607 22.1917 21.1179 21.806C20.5946 21.217 20.111 20.6728 19.6984 20.8014C19.0054 21.0177 19.0264 22.4826 19.0264 22.4826C19.0264 22.4826 19.0318 22.7963 18.8743 22.9625Z" fill="#535967"/>
</svg>
